<svg width="31" height="30" viewBox="0 0 31 30" fill="none" xmlns="http://www.w3.org/2000/svg">
<path d="M0.916016 1.16667L12.9223 13.1729C13.2591 13.5142 13.6603 13.7852 14.1027 13.9701C14.5451 14.1551 15.0198 14.2503 15.4993 14.2503C15.9788 14.2503 16.4536 14.1551 16.896 13.9701C17.3384 13.7852 17.7396 13.5142 18.0764 13.1729L30.0827 1.16667M0.916016 15.75L12.9223 27.7563C13.2592 28.0973 13.6605 28.368 14.1029 28.5528C14.5453 28.7376 15.0199 28.8328 15.4993 28.8328C15.9788 28.8328 16.4534 28.7376 16.8958 28.5528C17.3382 28.368 17.7395 28.0973 18.0764 27.7563L30.0827 15.75" stroke="#E6E6E4" stroke-width="1.5" stroke-linecap="round" stroke-linejoin="round"/>
</svg>
