<svg width="38" height="38" viewBox="0 0 38 38" fill="none" xmlns="http://www.w3.org/2000/svg">
<path d="M20.097 33.3334C16.3926 33.3334 13.2442 32.0373 10.652 29.445C8.05978 26.8528 6.76367 23.7045 6.76367 20C6.76367 16.6245 7.86367 13.6967 10.0637 11.2167C12.2659 8.73892 14.9903 7.27615 18.237 6.82837C18.327 6.82837 18.4153 6.8317 18.502 6.83837C18.5887 6.84504 18.6737 6.85448 18.757 6.8667C18.1948 7.65115 17.7498 8.52337 17.422 9.48337C17.0942 10.4434 16.9303 11.4489 16.9303 12.5C16.9303 15.4634 17.967 17.9817 20.0403 20.055C22.1137 22.1284 24.6326 23.1656 27.597 23.1667C28.6548 23.1667 29.662 23.0028 30.6187 22.675C31.5764 22.3473 32.4364 21.9023 33.1987 21.34C33.212 21.4234 33.222 21.5084 33.2287 21.595C33.2353 21.6817 33.2381 21.7695 33.237 21.8584C32.8103 25.1061 31.3576 27.8306 28.8787 30.0317C26.3998 32.2328 23.4737 33.3334 20.097 33.3334ZM20.0953 31.6667C22.5398 31.6667 24.7342 30.9928 26.6787 29.645C28.6231 28.2973 30.0398 26.5406 30.9287 24.375C30.3731 24.5139 29.8176 24.625 29.262 24.7084C28.7064 24.7917 28.1509 24.8334 27.5953 24.8334C24.1798 24.8334 21.2703 23.6323 18.867 21.23C16.4637 18.8278 15.2626 15.9178 15.2637 12.5C15.2637 11.9445 15.3053 11.3889 15.3887 10.8334C15.472 10.2778 15.5831 9.72226 15.722 9.1667C13.5553 10.0556 11.7981 11.4723 10.4503 13.4167C9.10256 15.3611 8.42923 17.5556 8.43034 20C8.43034 23.2223 9.56923 25.9723 11.847 28.25C14.1248 30.5278 16.8731 31.6667 20.0953 31.6667Z" fill="#E6E6E4"/>
</svg>
